<svg class="img-fluid" id="outputsvg" xmlns="http://www.w3.org/2000/svg"
  style="transform: none; transform-origin: 50% 50%; cursor: move; max-height: 613.42px;" width="1380" height="1380"
  viewBox="0 0 13800 13800">
  <g id="l6SrSPBMdOJi3aJ3ukUjjfW" fill="rgb(27,4,48)" style="transform: none;">
    <g style="transform: none;">
      <path id="p5nyu8FCB"
        d="M8150 8555 l0 -185 -182 -2 -183 -3 -3 -177 -2 -178 -180 0 -180 0 0 -180 0 -180 -695 0 -695 0 0 60 0 60 -15 0 -15 0 0 20 0 20 15 0 15 0 0 100 0 100 -185 0 -185 0 0 180 0 180 -755 0 -755 0 0 -180 0 -180 -180 0 -179 0 -3 -354 -3 -354 -8 -9 -9 -8 -169 -3 -169 -4 2 -386 3 -387 178 -3 177 -2 0 -180 0 -180 1403 -1 c771 -1 1562 -3 1757 -5 195 -2 381 -4 412 -4 l58 0 2 -177 3 -178 175 -3 174 -2 8 -13 8 -12 0 -167 0 -168 178 -2 177 -3 3 -184 2 -184 53 7 52 6 703 0 702 0 0 180 0 180 180 0 180 0 0 180 0 180 180 0 180 0 5 23 5 22 -2 1095 -3 1095 -182 3 -183 2 -2 183 -3 182 -177 3 -178 2 -2 178 -3 177 -752 3 -753 2 0 -185z m1450 -425 l0 -180 180 0 180 0 0 -1060 0 -1060 -177 -2 -178 -3 -3 -178 -2 -177 -695 0 -695 0 0 180 0 180 -182 2 -183 3 -3 178 -2 177 -128 2 c-123 2 -194 4 -219 7 l-13 1 -2 178 -3 177 -1812 3 -1813 2 0 330 0 330 164 0 164 0 16 6 16 6 0 359 0 359 335 0 335 0 0 -365 0 -365 210 0 210 0 0 365 0 365 150 0 150 0 0 -180 0 -180 181 0 182 0 -5 -185 -5 -185 748 0 747 0 16 6 16 6 0 179 0 179 179 0 179 0 5 13 c2 6 2 87 -1 180 l-5 167 187 0 186 0 0 180 0 180 695 0 695 0 0 -180z">
      </path>
      <path id="pKKiM3mX2" d="M8510 6890 l0 -760 390 0 390 0 5 23 6 22 -3 735 -3 735 -392 3 -393 2 0 -760z"></path>
    </g>
  </g>
  <g id="l5IjCSLW8YeYlldUQ0t2oXy" fill="rgb(26,0,57)" style="transform: none;">
    <g style="transform: none;">
      <path id="pK9tJ4Xpf"
        d="M9630 8686 l0 -15 -17 -4 -18 -5 18 -1 17 -1 0 -15 0 -15 15 0 15 0 0 35 0 35 -15 0 -15 0 0 -14z"></path>
      <path id="pOFX02yrJ"
        d="M6000 7855 l0 -15 -15 0 -15 0 0 -50 0 -50 15 0 15 0 0 -15 0 -15 15 0 15 0 0 80 0 80 -15 0 -15 0 0 -15z">
      </path>
      <path id="phRUJcWmQ" d="M7378 7623 c12 -2 30 -2 40 0 l17 5 -40 -1 -40 0 23 -4z"></path>
      <path id="pw1ekLj4f"
        d="M8631 7575 l-8 -10 -3 -150 c-2 -82 -3 -166 -1 -185 1 -19 5 -249 9 -510 l7 -475 5 555 c6 623 7 720 9 738 l1 12 208 0 207 -1 45 -9 45 -8 7 6 7 7 -9 15 -9 15 -256 5 -257 5 -7 -10z">
      </path>
      <path id="pvDiidRYM" d="M8591 7553 c0 -10 4 -27 9 -38 l9 -20 0 38 1 37 -10 0 -10 0 1 -17z"></path>
      <path id="p1EqKuKuiL"
        d="M9186 7504 l-6 -16 0 -475 0 -475 -15 12 -15 12 -5 -14 c-3 -8 -5 -48 -3 -89 l3 -74 10 2 10 2 6 33 6 33 2 -102 1 -102 10 -6 10 -6 0 -25 0 -24 25 0 25 0 0 15 0 15 -15 0 -14 0 -5 33 c-3 17 -4 310 -3 649 l2 618 -11 0 -12 0 -6 -16z">
      </path>
      <path id="p5Wo1Su5r" d="M8570 6710 l0 -480 10 0 10 0 0 480 0 480 -10 0 -10 0 0 -480z"></path>
      <path id="pRdhCyiBB"
        d="M7450 6496 l0 -15 -17 -4 -18 -5 18 -1 17 -1 0 -15 0 -15 15 0 15 0 0 35 0 35 -15 0 -15 0 0 -14z"></path>
      <path id="p86Uce8CU"
        d="M7450 6415 l0 -15 -15 0 -15 0 0 -10 0 -10 15 0 15 0 0 -15 0 -15 15 0 15 0 0 40 0 40 -15 0 -15 0 0 -15z">
      </path>
      <path id="p68yOsbdn" d="M8533 6210 l0 -45 4 23 c2 12 2 32 0 45 l-4 22 0 -45z"></path>
      <path id="p1Fs07wtVX" d="M9138 6238 l-5 -13 6 -17 6 -17 13 8 14 8 -4 18 -3 18 -11 4 -12 4 -4 -13z"></path>
      <path id="p1C4GiJyRL"
        d="M9272 6220 c-1 -19 -6 -40 -10 -46 l-7 -11 -55 1 -55 1 -3 -18 -3 -17 60 0 61 0 0 14 0 14 11 4 10 3 -4 45 -4 45 -1 -35z">
      </path>
      <path id="p19xgjxqPX"
        d="M8590 6220 l0 -9 -15 5 -15 6 0 -12 0 -11 9 6 10 5 6 -10 6 -10 21 0 20 0 -6 16 c-3 9 -6 18 -6 20 0 2 -7 4 -15 4 l-15 0 0 -10z">
      </path>
      <path id="p4IAZAwF8"
        d="M7450 6186 l0 -13 -32 -5 c-18 -2 -94 -3 -168 -1 l-135 3 -27 -6 -28 -6 0 -14 0 -14 193 0 192 0 13 27 c15 33 15 43 2 43 l-10 0 0 -14z">
      </path>
      <path id="p1Hr1VR52G"
        d="M6798 6163 l-18 -4 0 -15 0 -14 40 0 40 0 0 15 0 15 -9 0 c-5 0 -15 2 -23 4 -7 2 -21 2 -30 -1z"></path>
    </g>
  </g>
  <g id="l68A2mQjBs23fPS2ceTJefG" fill="rgb(198,92,42)" style="transform: none;">
    <g style="transform: none;">
      <path id="puaHL8FDi"
        d="M8140 8555 l0 -175 -177 -2 -178 -3 -3 -37 -3 -38 14 0 15 0 5 20 5 20 181 0 181 0 0 -180 0 -180 -179 0 -179 0 -6 35 -7 35 -14 0 -15 0 0 -35 0 -35 15 0 14 0 3 -167 c2 -93 1 -174 -1 -180 l-3 -13 -179 0 -179 0 0 15 0 15 -15 0 -15 0 0 -15 0 -15 15 0 15 0 0 -180 0 -180 -10 -1 c-5 -1 -14 -3 -20 -4 -5 -1 -17 -3 -25 -4 l-15 -1 0 -15 0 -15 18 0 17 0 3 -319 3 -319 -10 -7 -11 -6 0 -19 0 -19 23 -3 22 -3 3 -178 2 -179 -20 -5 -20 -5 0 -14 0 -14 19 0 20 0 3 16 3 17 53 -1 c28 0 108 -1 177 -1 l125 -1 0 -15 0 -15 18 0 17 0 0 728 0 727 169 3 170 2 14 12 14 12 -6 58 -7 58 7 110 7 110 176 2 176 3 3 178 2 177 20 0 20 0 0 15 0 15 -17 1 c-10 0 -107 0 -215 -1 l-198 -2 0 186 0 186 15 0 15 0 0 10 0 10 -35 0 -35 0 0 -175z">
      </path>
      <path id="p123lbsFPB"
        d="M9950 8367 l0 -15 20 -5 20 -5 0 -181 0 -181 -15 0 -15 0 0 -10 0 -10 15 0 15 0 0 10 0 10 20 0 20 0 -2 198 -3 197 -37 3 -38 3 0 -14z">
      </path>
      <path id="pW32si65R"
        d="M9960 5815 l0 -15 15 0 15 0 0 -20 0 -20 20 0 20 0 0 20 0 20 -20 0 -20 0 0 15 0 15 -15 0 -15 0 0 -15z"></path>
      <path id="puknRtoaT" d="M8180 5450 l0 -10 15 0 15 0 0 10 0 10 -15 0 -15 0 0 -10z"></path>
      <path id="pHBkByzc1"
        d="M8140 5247 l0 -195 16 -6 16 -6 744 0 744 0 0 35 0 35 -15 0 -15 0 0 -15 0 -15 -725 -2 -725 -3 -2 180 -3 180 -17 3 -18 3 0 -194z">
      </path>
    </g>
  </g>
  <g id="l5O7MTJguenAUs2fC5nQe68" fill="rgb(238,138,61)" style="transform: none;">
    <g style="transform: none;">
      <path id="pSvX6COPe"
        d="M9630 8366 l0 -14 -16 -6 -16 -6 -476 -1 -477 -1 -53 -6 -53 -7 -2 -170 -2 -170 -32 -3 -33 -3 -6 -23 c-3 -13 -5 -37 -3 -52 1 -16 1 -48 1 -71 l-2 -43 -35 0 -35 0 0 30 0 30 -10 0 -10 0 0 44 0 44 -75 7 -75 7 0 14 0 14 -20 0 -20 0 -1 -17 c-3 -39 -6 -59 -13 -80 l-7 -23 8 0 8 0 -3 -45 -4 -45 18 0 18 0 -18 -13 -17 -12 -4 -43 -4 -42 10 -6 10 -6 -12 -14 -11 -14 -15 0 -14 0 3 -17 3 -18 203 -3 202 -2 0 19 0 19 14 5 14 6 -6 149 -5 149 14 8 13 9 315 -3 c173 -1 319 -5 323 -7 l8 -5 0 -155 0 -154 16 0 16 0 5 -20 5 -20 112 0 c61 0 222 3 359 7 l247 6 0 194 0 193 20 0 20 0 0 20 0 20 -14 0 -14 0 -5 -20 -5 -20 -181 0 -181 0 0 45 0 45 -15 0 -15 0 0 25 0 26 15 5 15 6 0 49 0 49 -15 0 -15 0 0 20 0 20 15 0 15 0 0 36 0 36 20 5 20 5 0 14 0 14 -20 0 -20 0 0 -14z m-180 -300 c0 -24 3 -51 6 -60 l6 -16 -16 0 -16 0 0 -60 0 -60 -50 0 -50 0 0 9 c0 6 5 13 10 16 l10 6 0 39 0 40 -25 16 -25 16 0 14 0 14 -55 0 -55 0 0 35 0 35 130 0 130 0 0 -44z m458 -335 l3 -54 -62 7 c-34 3 -88 6 -120 6 l-59 0 0 45 0 44 88 4 c48 2 101 3 117 3 l30 -1 3 -54z">
      </path>
      <path id="pgYz9zh99"
        d="M4150 7995 l0 -15 15 0 15 0 0 -94 0 -93 92 -7 c50 -3 115 -6 145 -6 l53 0 0 -45 0 -45 -125 0 -125 0 0 20 0 20 -20 0 -20 0 0 -69 0 -69 328 -6 c180 -4 344 -9 365 -12 l37 -6 0 206 0 206 -365 0 -365 0 0 15 0 15 -15 0 -15 0 0 -15z">
      </path>
      <path id="p1Fr1RSMnv"
        d="M5630 7995 l0 -15 -180 0 -180 0 0 -199 0 -198 135 -5 c75 -3 160 -3 190 0 l55 4 0 19 0 19 -10 0 -10 0 0 20 0 20 -15 0 -15 0 0 90 0 90 15 0 15 0 0 70 0 70 15 0 15 0 0 15 0 15 -15 0 -15 0 0 -15z">
      </path>
      <path id="plKdlk1cY"
        d="M5270 7290 l0 -40 -180 0 -180 0 0 10 0 10 -197 -2 -198 -3 -3 -197 -2 -198 22 -4 c13 -3 674 -7 1471 -8 l1447 -3 0 52 0 52 -10 6 -10 6 0 95 0 94 10 0 10 0 0 45 0 45 -735 0 -734 0 5 15 6 15 -75 0 -76 0 -6 -10 -6 -10 -85 0 -84 0 0 9 0 9 -175 -6 -175 -5 0 32 0 31 -20 0 -20 0 0 -40z m200 -120 l0 -10 44 0 45 0 6 -10 6 -10 34 0 34 0 5 8 5 8 403 3 c222 1 579 4 793 6 l390 3 63 7 62 8 0 -51 0 -50 -16 -6 c-9 -3 -27 -6 -41 -6 l-25 0 -5 20 -5 20 -359 0 -359 0 0 -20 0 -20 -120 0 -120 0 0 20 0 20 -280 0 -280 0 0 -20 0 -20 -280 0 -280 0 0 20 0 20 -120 0 -120 0 0 -20 0 -20 -57 0 -58 1 18 10 17 10 0 23 0 23 100 12 c56 6 114 11 130 11 l30 0 0 -10 0 -10 100 0 100 0 0 20 0 20 70 0 70 0 0 -10z">
      </path>
    </g>
  </g>
  <g id="l3nn2NE8IaaMeHczuERGo6r" fill="rgb(246,135,64)" style="transform: none;">
    <g style="transform: none;">
      <path id="pG35qhjzL"
        d="M9630 8365 l0 -15 -12 0 c-6 0 -9 -2 -7 -5 3 -2 15 -2 27 2 l22 5 0 14 0 14 -15 0 -15 0 0 -15z"></path>
      <path id="pVUQAv1qX"
        d="M8539 8328 c-2 -7 -2 -87 1 -178 l5 -165 8 13 8 12 0 80 c0 82 5 110 19 110 4 0 10 -9 13 -20 l5 -20 27 0 27 0 5 20 5 20 9 0 c5 0 9 -4 9 -10 l0 -10 389 0 389 0 5 -14 6 -14 -15 -6 -16 -6 -139 0 -139 0 0 10 0 10 -90 0 -90 0 0 -10 0 -10 -151 0 -150 0 6 -10 6 -10 155 0 154 0 0 -10 0 -10 80 0 80 0 0 -35 0 -35 -77 0 -78 0 -15 -10 -15 -10 148 0 147 0 0 -12 0 -12 28 -22 27 -22 -24 -26 -24 -26 11 -25 12 -26 -11 -17 -10 -17 14 -35 15 -34 84 3 83 3 3 9 4 9 79 0 79 0 0 -50 0 -50 58 -1 c31 -1 110 -3 175 -5 l117 -3 0 19 0 20 -15 0 -14 0 -4 63 -3 62 -4 -70 -4 -70 -5 70 -6 70 -159 0 -159 0 -4 13 -5 12 166 0 166 0 0 22 0 22 12 -12 c7 -7 18 -12 25 -12 l13 0 0 30 0 29 -15 -6 -16 -5 -17 14 -17 15 -175 -2 -176 -2 -2 23 -2 24 24 6 24 6 6 36 c3 20 6 96 6 169 l0 132 -16 -6 -16 -6 14 -8 13 -9 -22 0 -23 0 0 20 0 20 -28 0 -29 0 -13 -40 -13 -39 6 -88 5 -88 -7 -50 -7 -50 -7 47 c-5 26 -8 75 -8 110 0 35 -2 71 -5 81 l-5 17 -404 0 -404 0 -6 10 -6 10 -25 0 -24 0 0 -10 0 -10 -15 0 -14 0 -12 21 -11 21 12 12 11 11 456 3 455 2 9 6 c5 3 9 9 9 15 l0 9 -479 0 -479 0 -3 -12z m1044 -144 l7 -7 0 11 0 12 15 0 15 0 0 -20 0 -20 -19 0 -20 0 -7 -12 -8 -13 -1 -75 0 -75 -10 -2 -10 -3 -1 158 -1 157 11 7 11 7 5 -58 5 -59 8 -8z m-87 -259 l-7 -35 16 0 17 0 5 -20 5 -20 34 6 34 6 0 -21 0 -21 -50 0 -50 0 0 20 0 20 -20 0 -20 0 0 50 0 50 21 0 21 0 -6 -35z m354 -44 l85 -8 -148 -1 -148 -2 6 10 6 10 57 -1 c31 -1 95 -4 142 -8z m-370 -61 l0 -20 -71 0 -70 0 -15 14 -14 14 13 5 c6 3 45 6 85 6 l72 1 0 -20z">
      </path>
      <path id="p4c6GZJwd" d="M8605 8128 c-3 -7 -6 -24 -7 -38 l-3 -25 23 -3 22 -3 0 40 0 41 -15 0 -16 0 -4 -12z"></path>
      <path id="p13Z6yCi64" d="M8610 8025 l0 -15 10 0 10 0 0 15 0 15 -10 0 -10 0 0 -15z"></path>
      <path id="pWcHEQuQ3"
        d="M4831 7954 l-12 -26 -282 3 -282 3 -37 7 -38 6 2 -139 1 -139 16 -8 16 -8 60 1 c33 1 99 3 147 4 l86 2 -5 40 -6 40 157 0 156 0 11 -27 c5 -14 8 -34 7 -42 l-3 -16 -73 -3 -73 -3 6 -9 6 -10 47 0 c26 0 63 3 83 6 l37 6 -5 82 c-2 44 -7 87 -9 95 l-4 14 -20 -18 -20 -18 -213 6 c-116 4 -245 10 -284 13 l-73 7 0 8 0 9 304 0 305 0 6 10 7 11 21 -7 c12 -4 25 -12 29 -18 l8 -11 0 25 c0 14 -4 31 -9 38 l-8 14 -14 -2 c-8 -1 -20 -2 -26 -1 l-13 1 0 18 c0 10 5 23 11 29 l12 12 23 -9 24 -10 0 20 0 20 -33 0 -34 0 -12 -26z m-11 -74 l0 -10 -309 0 -310 0 -6 10 -6 10 315 0 316 0 0 -10z">
      </path>
      <path id="p10Q0KXjPw"
        d="M8185 7958 c-4 -13 -9 -30 -10 -38 -1 -8 -5 -25 -9 -37 l-7 -23 9 0 10 0 -4 -17 c-2 -10 -5 -55 -7 -101 l-4 -82 8 -6 9 -5 -6 -11 -7 -11 14 5 14 5 -3 40 -3 39 26 12 26 12 59 0 60 0 0 11 0 10 60 -2 c33 -1 62 0 65 3 3 2 7 43 10 89 3 46 8 94 11 107 l6 22 -160 0 -160 0 -7 -22z m70 -48 c-3 -5 -12 -10 -20 -10 -8 0 -17 5 -20 10 l-6 10 26 0 26 0 -6 -10z m73 -7 c-10 -2 -26 -2 -35 0 l-18 5 35 0 35 0 -17 -5z m19 -78 c7 -8 13 -16 13 -19 l0 -5 -80 2 -80 2 0 15 0 15 67 1 67 2 13 -13z">
      </path>
      <path id="p17Kql4fZz"
        d="M8548 7968 l-16 -13 -7 -25 -7 -25 23 25 c13 14 30 30 39 37 l15 12 -16 1 c-8 0 -22 -6 -31 -12z"></path>
      <path id="pYoCVOWHF"
        d="M5515 7951 l-11 -11 -104 -9 -105 -9 -12 16 -13 16 1 -55 2 -54 4 23 4 22 105 0 c57 0 107 0 112 0 4 0 7 -5 7 -12 l0 -12 -89 0 -89 -1 -5 -13 -4 -13 93 2 94 2 1 -107 1 -106 6 -6 6 -6 18 7 c10 5 23 7 28 6 6 -2 18 -5 29 -7 10 -2 21 -6 24 -9 l5 -5 -49 -1 c-27 0 -101 -1 -164 -1 l-115 -1 105 -7 c58 -4 140 -8 183 -9 l77 -1 0 15 0 15 -15 0 -15 0 0 131 0 130 -27 -4 c-16 -3 -35 -8 -44 -12 l-17 -6 -7 11 -7 11 10 12 10 12 -11 28 -12 28 -10 -10z m55 -207 l0 -96 -12 4 -13 5 -3 83 c-2 46 0 90 2 97 l6 14 10 -6 10 -6 0 -95z">
      </path>
      <path id="p11Wtb0rah" d="M5566 7924 l-6 -16 6 -9 5 -9 30 0 29 0 0 25 0 25 -29 0 -29 0 -6 -16z"></path>
      <path id="pVvd0YNOR" d="M9254 7845 l-1 -90 4 42 c2 23 2 64 0 90 l-3 48 0 -90z"></path>
      <path id="pN9Slda8L"
        d="M5465 7810 l-6 -10 -69 0 -68 0 -6 -16 c-3 -9 -6 -22 -6 -30 l0 -14 71 0 72 0 13 -17 13 -18 1 58 c0 56 -3 66 -15 47z">
      </path>
      <path id="pyqLwcLRy" d="M4595 7640 l-6 -10 15 0 c8 0 18 5 21 10 l6 10 -15 0 c-8 0 -18 -4 -21 -10z"></path>
      <path id="pdrsUfVoT" d="M5330 7640 l0 -10 59 0 60 0 6 10 6 10 -65 0 -66 0 0 -10z"></path>
      <path id="p187eLS3vC" d="M9315 7640 l-6 -10 90 0 91 0 0 10 0 10 -84 0 -85 0 -6 -10z"></path>
      <path id="p1CL6Zy8As" d="M9545 7640 l-6 -10 25 0 26 0 0 10 0 10 -19 0 -20 0 -6 -10z"></path>
      <path id="p3St3Irsz" d="M8140 7610 l0 -10 42 0 c49 0 47 5 -4 14 l-38 7 0 -11z"></path>
      <path id="pskG48VUK" d="M4583 7603 c15 -2 37 -2 50 0 l22 4 -50 0 -50 0 28 -4z"></path>
      <path id="pWaaGVfvh" d="M4703 7603 c26 -2 68 -2 95 0 l47 3 -95 0 -95 0 48 -3z"></path>
      <path id="p17S4jvdQy" d="M9363 7603 c48 -2 126 -2 175 0 l87 3 -175 0 -175 0 88 -3z"></path>
      <path id="pxmyggAxe"
        d="M4875 7270 l-6 -10 -29 0 -29 0 -6 -10 -6 -10 52 0 52 0 -6 -7 -7 -6 16 -18 16 -18 -7 -11 -7 -12 -26 5 c-14 3 -32 3 -39 0 l-13 -5 6 -23 6 -23 -13 -7 -12 -8 -68 -4 -69 -4 0 35 0 35 70 7 70 7 0 7 0 8 -62 6 c-78 6 -140 6 -151 -1 l-9 -5 24 -12 23 -12 1 -71 c1 -40 4 -79 7 -87 l6 -15 -13 -10 -13 -11 -32 6 -31 6 0 -17 0 -17 27 5 27 5 25 -10 26 -10 1193 1 1194 0 14 11 13 12 142 -1 142 0 27 -26 c14 -14 31 -25 37 -25 l11 0 -1 140 0 141 -16 -2 c-9 -1 -24 2 -35 6 l-18 8 -202 -11 -201 -12 -605 0 c-333 -1 -617 -3 -633 -5 l-27 -3 -14 20 -14 19 -4 -11 -4 -12 -27 -1 -27 -2 -5 -15 -6 -14 -23 29 -24 30 -19 -18 c-11 -9 -25 -17 -31 -17 l-12 0 0 10 0 10 -100 0 -100 0 0 -21 0 -20 -42 3 -43 3 -3 19 -4 18 11 11 10 10 16 -13 c19 -15 28 -9 19 14 l-6 16 -40 0 -39 0 6 -20 6 -20 -6 -20 -6 -20 -10 0 -9 0 3 12 2 12 -70 -2 c-38 -2 -81 -5 -95 -8 l-25 -4 -12 19 -13 20 10 6 c6 3 10 10 10 16 l0 9 -30 0 -30 0 0 15 0 15 -14 0 c-8 0 -18 -4 -21 -10z m2525 -179 l0 -80 -567 -1 c-601 -1 -1507 -2 -1910 -1 l-243 1 0 15 0 15 150 0 150 0 0 20 0 20 90 0 90 0 0 -20 0 -20 310 0 310 0 0 20 0 20 250 0 250 0 0 -20 0 -20 150 0 150 0 0 20 0 20 329 0 329 0 5 -20 5 -20 55 0 c31 0 62 3 71 6 l16 6 0 59 c0 32 2 59 5 59 3 0 5 -36 5 -79z">
      </path>
      <path id="p1AQP3ryoh" d="M5270 7273 c0 -5 4 -15 10 -23 l9 -14 6 5 5 6 -6 17 c-6 16 -24 23 -24 9z"></path>
      <path id="pycN45qsf" d="M5521 7246 c2 -2 21 -6 42 -9 l37 -6 0 10 0 9 -42 0 c-23 0 -39 -2 -37 -4z"></path>
      <path id="p1959vuuiB" d="M5650 7240 l0 -10 35 0 35 0 0 10 0 10 -35 0 -35 0 0 -10z"></path>
      <path id="pfUcxHQkL" d="M7310 7240 l0 -10 15 0 15 0 0 10 0 10 -15 0 -15 0 0 -10z"></path>
      <path id="pIkte3cFL" d="M4531 7193 c1 -53 6 -49 11 10 l4 37 -8 0 -8 0 1 -47z"></path>
      <path id="p1GClKModo" d="M4835 7221 l-5 -10 10 -6 10 -6 10 6 c6 3 10 10 10 16 l0 9 -14 0 c-8 0 -17 -4 -21 -9z">
      </path>
      <path id="p14e2JDEwi" d="M4568 7123 l4 -88 9 -10 10 -10 -3 94 -3 94 -11 4 -10 3 4 -87z"></path>
      <path id="pJxOlGS4q" d="M7080 6921 l0 -9 144 -1 144 -2 7 11 6 10 -150 0 -151 0 0 -9z"></path>
    </g>
  </g>
  <g id="l5y1DcPg1VHTFMbrKTYgfqh" fill="rgb(237,176,72)" style="transform: none;">
    <g style="transform: none;">
      <path id="pPF6hICkJ"
        d="M8544 7965 l-16 -11 -1 -75 c0 -41 1 -105 2 -144 l3 -70 -7 -28 -7 -28 -352 3 -351 3 -2 -315 -2 -315 6 -67 6 -68 177 0 178 0 11 13 10 13 3 165 3 164 168 3 167 2 0 205 0 205 363 -2 362 -3 2 -560 c1 -308 3 -568 3 -577 l0 -18 14 0 14 0 5 13 4 12 161 0 161 0 10 10 10 10 3 555 3 555 -195 0 -195 0 -3 170 -3 170 -7 7 -8 8 -342 4 -342 3 -16 -12z">
      </path>
      <path id="pjPjY12F7" d="M6000 7635 l0 -15 10 0 10 0 0 15 0 15 -10 0 -10 0 0 -15z"></path>
      <path id="pylPY9ci5"
        d="M4501 7451 l-1 -165 -6 -5 -6 -6 -110 2 c-61 0 -130 4 -154 8 l-44 6 0 -15 0 -16 -22 -5 -23 -6 3 -187 c1 -103 5 -193 7 -199 l4 -13 216 0 215 0 0 19 0 20 -20 6 -20 6 2 167 3 167 183 3 182 2 0 181 0 180 -12 4 c-7 2 -99 5 -204 7 l-192 3 -1 -164z">
      </path>
      <path id="p1HeXy52dJ"
        d="M5271 7442 l1 -180 7 -10 6 -11 156 -2 156 -2 14 8 13 9 4 -12 4 -12 112 0 112 0 10 9 9 10 55 3 55 3 3 184 2 184 -227 -6 c-284 -8 -441 -8 -471 0 l-23 5 2 -180z">
      </path>
      <path id="p11LujgCRA" d="M9920 7595 l0 -25 35 0 35 0 0 25 0 25 -35 0 -35 0 0 -25z"></path>
      <path id="pxLee9nRF"
        d="M7040 6708 l1 -178 193 0 192 0 12 12 12 12 0 163 0 163 -17 0 c-10 0 -102 1 -206 3 l-187 2 0 -177z"></path>
      <path id="p6tP6VFQx"
        d="M7815 6218 c-3 -7 -4 -103 -2 -213 l2 -200 183 -3 182 -2 0 -15 0 -15 10 0 10 0 0 191 0 190 -10 20 -11 19 -164 0 -165 0 0 20 0 20 -15 0 -16 0 -4 -12z">
      </path>
      <path id="p15lirAoOb" d="M7782 5788 l5 -13 16 -3 17 -3 -6 15 -6 16 -15 0 -15 0 4 -12z"></path>
    </g>
  </g>
  <g id="l2m6TiABT4H5lxTf7Kyn3q2" fill="rgb(23,236,229)" style="transform: none;">
    <g>
      <path id="pdHQWj8d9"
        d="M0 6900 l0 -6900 6900 0 6900 0 0 6900 0 6900 -6900 0 -6900 0 0 -6900z m9628 1628 l2 -178 183 -2 182 -3 3 -182 2 -183 178 -2 177 -3 3 -1065 2 -1065 -5 -22 -5 -23 -178 -2 -177 -3 -3 -177 -2 -178 -180 0 -180 0 0 16 0 16 -12 -4 c-6 -2 -14 -10 -16 -16 l-4 -12 16 0 16 0 0 -185 0 -185 -727 2 -728 3 -3 183 -2 182 -175 0 -175 0 0 168 0 167 -8 12 -8 13 -174 2 -175 3 -3 176 -2 176 -503 6 c-276 4 -1093 7 -1814 7 l-1313 0 0 180 0 180 15 0 15 0 0 15 0 15 -15 0 -15 0 0 -15 0 -15 -177 2 -178 3 -3 357 -2 356 169 4 169 3 9 8 8 9 3 354 3 354 179 0 180 0 0 180 0 180 725 0 725 0 0 -180 0 -180 185 0 185 0 0 -180 0 -180 725 0 725 0 0 180 0 180 180 0 180 0 2 183 3 182 178 3 177 2 0 174 0 173 7 6 6 7 721 -2 721 -3 3 -177z">
      </path>
      <path id="p14KaINdZy" d="M9967 5823 c-4 -3 -7 -10 -7 -15 l0 -8 15 0 15 0 0 15 0 15 -8 0 c-5 0 -12 -3 -15 -7z">
      </path>
    </g>
  </g>
  <g id="lJ1ij3ds38t2EN36fRBBTy" fill="rgb(244,171,79)" style="transform: none;">
    <g style="transform: none;">
      <path id="pvJuRo76u"
        d="M8544 7966 l-16 -12 0 -69 c-1 -39 0 -103 0 -143 l2 -74 13 5 12 4 0 134 0 134 332 0 331 0 7 -7 7 -7 6 -156 5 -155 8 0 9 0 0 169 0 170 -9 6 -10 5 -340 4 -341 3 -16 -11z">
      </path>
      <path id="phGXee0vy" d="M9175 7660 l-6 -20 6 -10 c3 -5 10 -10 16 -10 l9 0 0 30 0 30 -9 0 -10 0 -6 -20z"></path>
      <path id="p16JhBOAep"
        d="M8525 7636 l-8 -28 -351 3 -351 4 -3 -30 -2 -30 12 15 13 15 230 -2 230 -1 118 7 119 7 6 11 7 11 30 5 30 4 -32 2 -32 1 -4 18 -4 17 -8 -29z">
      </path>
      <path id="pAF3z8FKC"
        d="M4897 7628 l-4 -13 -197 0 -197 0 3 -20 3 -20 17 -3 16 -3 -5 20 -5 21 28 -9 29 -10 153 -4 154 -4 8 -14 9 -13 -1 42 c0 43 -3 51 -11 30z">
      </path>
      <path id="p14Zrb4gsC" d="M8788 7623 c68 -2 176 -2 240 0 l117 3 -240 0 -240 0 123 -3z"></path>
      <path id="pUVE7FeoP"
        d="M5271 7579 l1 -44 5 20 c3 11 8 23 11 27 l7 7 105 0 c58 1 114 1 125 1 11 0 32 0 47 0 l27 0 6 9 5 10 -146 0 c-80 1 -157 4 -170 7 l-24 6 1 -43z">
      </path>
      <path id="p09fXE1N9"
        d="M9453 7613 l-183 -3 0 -9 0 -9 179 2 178 1 -4 -12 -5 -13 21 0 21 0 0 25 0 25 -12 -2 c-7 -2 -95 -4 -195 -5z">
      </path>
      <path id="pui8a9kxP" d="M5514 7549 l-6 -11 11 -11 11 -11 0 22 c0 24 -5 28 -16 11z"></path>
      <path id="phliiSQyH" d="M9533 7538 l4 -13 13 0 13 0 5 13 4 12 -22 0 -22 0 5 -12z"></path>
      <path id="pq1IH3SC4" d="M5513 7430 l0 -75 4 38 c2 20 2 54 0 75 l-4 37 0 -75z"></path>
      <path id="p10csRcVcp" d="M4510 7281 c-13 -26 -13 -31 5 -31 l15 0 0 25 c0 30 -6 32 -20 6z"></path>
      <path id="p1HCCp5ydq"
        d="M4552 7267 c-5 -6 -16 -23 -23 -37 l-14 -25 -5 -135 -5 -135 -153 -3 -153 -3 6 -9 6 -10 144 0 144 0 28 -12 28 -12 -40 -5 -40 -6 25 -8 c14 -3 40 -7 58 -7 l32 0 0 14 0 14 -25 6 -25 7 2 167 3 167 183 3 182 2 0 8 0 7 -42 2 c-24 1 -97 4 -164 6 l-121 4 -10 6 -11 7 -10 -13z">
      </path>
      <path id="pCxd2UDgJ"
        d="M5464 7269 l-6 -11 -79 3 -79 3 -12 -12 -12 -12 146 0 146 0 18 -7 17 -6 -7 11 -7 11 -34 7 c-20 3 -38 10 -41 15 -3 5 -14 9 -24 9 l-19 0 -7 -11z">
      </path>
      <path id="pTsH7nj2L" d="M5630 7238 l0 -8 117 0 116 0 -7 7 -8 8 -109 1 -109 1 0 -9z"></path>
      <path id="pzBYYJNzx" d="M7050 6865 l0 -25 14 0 13 0 -5 25 -4 25 -9 0 -9 0 0 -25z"></path>
      <path id="p765ku0ij"
        d="M7080 6879 c0 -4 12 -10 27 -14 l28 -7 140 3 140 3 3 -62 3 -62 14 0 15 0 0 70 0 70 -22 0 c-13 1 -96 2 -185 3 l-163 2 0 -6z">
      </path>
      <path id="p1OfLLqDR" d="M7810 5903 c0 -3 7 -11 15 -19 l15 -15 0 19 0 19 -15 0 c-8 0 -15 -2 -15 -4z"></path>
      <path id="ptQJC3eD3" d="M8026 5865 l-5 -15 14 0 15 0 0 9 c0 6 -4 12 -9 15 l-9 6 -6 -15z"></path>
      <path id="p3Ru4Il80" d="M8075 5850 l-6 -10 6 -10 c3 -5 10 -10 16 -10 l9 0 0 20 0 20 -9 0 c-6 0 -13 -4 -16 -10z">
      </path>
    </g>
  </g>
  <g id="l5aAoZntBRpMl7c3JFeXLLi" fill="rgb(125,217,216)" style="transform: none;">
    <g style="transform: none;">
      <path id="pKCe0Emm0" d="M3978 7983 c12 -2 32 -2 45 0 l22 4 -45 0 -45 0 23 -4z"></path>
      <path id="p4c3U0tsw" d="M7548 7983 c17 -2 47 -2 65 0 l32 4 -65 0 -65 0 33 -4z"></path>
      <path id="pekq4X98N" d="M7743 7983 c15 -2 37 -2 50 0 l22 4 -50 0 -50 0 28 -4z"></path>
      <path id="pLp5PDa06" d="M10118 7983 c28 -2 76 -2 105 0 l52 3 -105 0 -105 0 53 -3z"></path>
    </g>
  </g>
  <g id="l4oZjBLN3Jl8pMPYijUOcXM" fill="rgb(243,222,113)" style="transform: none;">
    <g style="transform: none;">
      <path id="pOwsKK2cR"
        d="M4180 7445 l0 -180 8 -10 7 -10 125 -3 125 -3 41 6 41 6 6 157 5 158 -5 27 -5 26 -174 3 -174 3 0 -180z"></path>
      <path id="p1DSb2dhyt"
        d="M9626 7598 l-6 -23 0 -522 0 -522 -11 -7 -12 -7 -163 1 -164 1 0 -167 0 -167 -8 -12 -7 -11 -357 -1 -358 0 0 539 0 540 -180 0 -179 0 -9 -17 -9 -18 4 -149 3 -148 -9 -12 -9 -11 -164 -3 c-89 -2 -165 -6 -168 -8 -2 -3 -6 -152 -7 -332 l-3 -327 8 -30 8 -29 161 3 161 3 10 -19 9 -18 2 -148 2 -148 -12 -15 -12 -15 14 3 14 3 3 -182 2 -183 728 -2 727 -3 0 180 0 180 178 3 177 2 0 900 0 900 -20 0 -20 0 0 10 0 10 -159 0 -159 0 -6 -22z">
      </path>
      <path id="pkYUURvZS"
        d="M3848 7252 l-28 -3 0 -360 0 -359 1624 0 1624 0 4 28 c4 22 3 227 -1 311 l-1 23 -1447 -3 -1448 -4 0 183 0 182 -40 1 c-22 0 -89 1 -150 2 -60 1 -122 1 -137 -1z">
      </path>
    </g>
  </g>
  <g id="lmFRUWbkJSRn8xr1yEaSt2" fill="rgb(163,214,214)" style="transform: none;">
    <g style="transform: none;">
      <path id="p16OcLOPRn" d="M3 5855 l0 -50 4 28 c2 15 2 37 0 50 l-4 22 0 -50z"></path>
      <path id="p1HaaicWjR" d="M2 5730 l0 -35 5 18 c2 9 2 25 0 35 l-5 17 0 -35z"></path>
    </g>
  </g>
  <g id="l5hpwEkI6EkfiDqXwHBIXFF" fill="rgb(255,216,215)" style="transform: none;">
    <g style="transform: none;">
      <path id="p1BX2jxfE6" d="M3478 13793 c1893 -2 4991 -2 6885 0 l3442 2 -6885 0 -6885 0 3443 -2z"></path>
    </g>
  </g>
</svg>